<?xml version="1.0" encoding="utf-8"?>
<!-- Generator: Adobe Illustrator 26.3.1, SVG Export Plug-In . SVG Version: 6.00 Build 0)  -->
<svg version="1.1" id="Layer_1" xmlns="http://www.w3.org/2000/svg" xmlns:xlink="http://www.w3.org/1999/xlink" x="0px" y="0px"
	 viewBox="0 0 160 20.3" style="enable-background:new 0 0 160 20.3;" xml:space="preserve">
<style type="text/css">
	.st0{fill:#1B75BB;}
	.st1{fill:#3B3A3C;}
</style>
<g>
	<g>
		<path class="st0" d="M44,1.2h3.3c2.2,0,3.7,0.1,4.5,0.3c0.8,0.2,1.4,0.6,1.9,1.3c0.5,0.7,0.7,1.8,0.7,3.3c0,1.4-0.2,2.3-0.5,2.8
			c-0.3,0.5-1,0.8-2,0.9c0.9,0.2,1.5,0.5,1.9,0.9c0.3,0.4,0.5,0.7,0.6,1.1c0.1,0.3,0.1,1.2,0.1,2.6v4.7H50v-5.9c0-1-0.1-1.6-0.2-1.8
			c-0.2-0.2-0.5-0.3-1.2-0.3v8.1H44V1.2z M48.6,4.2v4c0.5,0,0.9-0.1,1.1-0.2C49.9,7.9,50,7.4,50,6.6v-1c0-0.6-0.1-0.9-0.3-1.1
			C49.5,4.3,49.2,4.2,48.6,4.2z"/>
		<path class="st0" d="M64.2,1.2l2.7,17.9h-4.8l-0.2-3.2h-1.7l-0.3,3.2h-4.8l2.4-17.9H64.2z M61.8,12.7c-0.2-2-0.5-4.5-0.7-7.5
			c-0.5,3.4-0.8,5.9-0.9,7.5H61.8z"/>
		<path class="st0" d="M72.3,1.2v17.9h-4.7V1.2H72.3z"/>
		<path class="st0" d="M84.1,6.6h-4.3V5.3c0-0.6-0.1-1-0.2-1.2c-0.1-0.2-0.3-0.3-0.6-0.3c-0.3,0-0.5,0.1-0.6,0.3
			c-0.1,0.2-0.2,0.6-0.2,1c0,0.6,0.1,1,0.2,1.3c0.2,0.3,0.6,0.7,1.3,1.1c2.1,1.2,3.4,2.2,3.9,3c0.5,0.8,0.8,2.1,0.8,3.8
			c0,1.3-0.1,2.2-0.4,2.8c-0.3,0.6-0.9,1.1-1.7,1.5c-0.9,0.4-1.9,0.6-3,0.6c-1.2,0-2.3-0.2-3.2-0.7c-0.9-0.5-1.5-1.1-1.7-1.8
			c-0.3-0.7-0.4-1.8-0.4-3.1v-1.2h4.3v2.2c0,0.7,0.1,1.1,0.2,1.3c0.1,0.2,0.3,0.3,0.6,0.3c0.3,0,0.5-0.1,0.7-0.4
			c0.2-0.2,0.2-0.6,0.2-1.1c0-1.1-0.1-1.7-0.4-2.1c-0.3-0.3-1-0.9-2.2-1.6c-1.2-0.8-1.9-1.3-2.3-1.7c-0.4-0.3-0.7-0.8-0.9-1.4
			c-0.2-0.6-0.4-1.4-0.4-2.3c0-1.4,0.2-2.4,0.5-3c0.3-0.6,0.9-1.1,1.7-1.5c0.8-0.4,1.7-0.5,2.8-0.5c1.2,0,2.2,0.2,3.1,0.6
			c0.9,0.4,1.4,0.9,1.7,1.5c0.3,0.6,0.4,1.6,0.4,3V6.6z"/>
		<path class="st0" d="M96.6,1.2v17.9H92v-7.5h-1.4v7.5h-4.7V1.2h4.7v6.4H92V1.2H96.6z"/>
		<path class="st0" d="M106.5,1.2l2.7,17.9h-4.8l-0.2-3.2h-1.7l-0.3,3.2h-4.8l2.4-17.9H106.5z M104.1,12.7c-0.2-2-0.5-4.5-0.7-7.5
			c-0.5,3.4-0.8,5.9-0.9,7.5H104.1z"/>
		<path class="st1" d="M124.7,1.2v17.9H120v-7.5h-1.4v7.5H114V1.2h4.7v6.4h1.4V1.2H124.7z"/>
		<path class="st1" d="M137.2,11.7c0,1.8,0,3.1-0.1,3.8c-0.1,0.7-0.4,1.4-0.8,2.1c-0.4,0.6-1,1.1-1.8,1.4c-0.8,0.3-1.6,0.5-2.7,0.5
			c-1,0-1.8-0.2-2.6-0.5c-0.8-0.3-1.4-0.8-1.8-1.4c-0.5-0.6-0.7-1.3-0.8-2c-0.1-0.7-0.1-2-0.1-3.9V8.6c0-1.8,0-3.1,0.1-3.8
			c0.1-0.7,0.4-1.4,0.8-2.1c0.4-0.6,1-1.1,1.8-1.4c0.8-0.3,1.6-0.5,2.7-0.5c1,0,1.8,0.2,2.6,0.5c0.8,0.3,1.4,0.8,1.8,1.4
			c0.5,0.6,0.7,1.3,0.8,2c0.1,0.7,0.1,2,0.1,3.9V11.7z M132.5,5.8c0-0.8,0-1.4-0.1-1.6c-0.1-0.2-0.3-0.3-0.6-0.3
			c-0.2,0-0.4,0.1-0.6,0.3c-0.1,0.2-0.2,0.7-0.2,1.7v8.4c0,1,0,1.7,0.1,1.9c0.1,0.2,0.3,0.4,0.6,0.4c0.3,0,0.5-0.1,0.6-0.4
			c0.1-0.3,0.1-0.9,0.1-2V5.8z"/>
		<path class="st1" d="M148.8,6.6h-4.3V5.3c0-0.6-0.1-1-0.2-1.2c-0.1-0.2-0.3-0.3-0.6-0.3c-0.3,0-0.5,0.1-0.6,0.3
			c-0.1,0.2-0.2,0.6-0.2,1c0,0.6,0.1,1,0.2,1.3c0.2,0.3,0.6,0.7,1.3,1.1c2.1,1.2,3.4,2.2,3.9,3c0.5,0.8,0.8,2.1,0.8,3.8
			c0,1.3-0.1,2.2-0.4,2.8c-0.3,0.6-0.9,1.1-1.7,1.5c-0.9,0.4-1.9,0.6-3,0.6c-1.2,0-2.3-0.2-3.2-0.7c-0.9-0.5-1.5-1.1-1.7-1.8
			c-0.3-0.7-0.4-1.8-0.4-3.1v-1.2h4.3v2.2c0,0.7,0.1,1.1,0.2,1.3c0.1,0.2,0.3,0.3,0.6,0.3s0.5-0.1,0.7-0.4c0.2-0.2,0.2-0.6,0.2-1.1
			c0-1.1-0.1-1.7-0.4-2.1c-0.3-0.3-1-0.9-2.2-1.6c-1.2-0.8-1.9-1.3-2.3-1.7c-0.4-0.3-0.7-0.8-0.9-1.4c-0.2-0.6-0.4-1.4-0.4-2.3
			c0-1.4,0.2-2.4,0.5-3c0.4-0.6,0.9-1.1,1.7-1.5c0.8-0.4,1.7-0.5,2.8-0.5c1.2,0,2.2,0.2,3.1,0.6c0.9,0.4,1.4,0.9,1.7,1.5
			c0.3,0.6,0.4,1.6,0.4,3V6.6z"/>
		<path class="st1" d="M160,1.2v3.6h-2.8v14.3h-4.7V4.8h-2.8V1.2H160z"/>
	</g>
	<g>
		<g>
			<g>
				<g>
					<path class="st1" d="M35.1,2.3h-5.7l-1,5.2h-4.6l1.1-5.2h-5.2c0.6,0.3,1.2,0.6,1.7,1.1c0.9,0.9,1.3,2.1,1.2,3.5l0,0
						c0,0-0.1,1.2-0.9,2.4c-0.6,1-1.7,2.2-3.7,2.7c0.7,0.8,1.9,2.4,3.6,5.4l1.2-4.8h4.3l-1,5.4h6.2c0.7,0,1.3-0.5,1.4-1.1L36.5,4
						C36.7,3.1,36,2.3,35.1,2.3z"/>
				</g>
			</g>
			<g>
				<g>
					<path class="st0" d="M3.8,10.1h8.7c3.7-0.7,2.9-4.5,0-4.5H4.6L5,3.4c0.1-0.7,0.7-1.2,1.4-1.2h10.4c0,0,5.2-0.1,5.3,4.2
						c0,0.3,0,0.7-0.1,1c-0.3,1.2-1.4,3.9-5,4.3c0,0,1.5,1.4,4.4,6.3h-8.7l-2-4.7l-0.3,0.1l-1.1,4.6H3.9c-0.9,0-1.6-0.8-1.4-1.7
						L3.8,10.1z"/>
				</g>
			</g>
		</g>
		<g>
			<path class="st1" d="M19.1,0.4c0,0.1,0,0.2,0.1,0.2H6.1c-1.3,0-2.4,0.9-2.7,2.2L2,9.9c0-0.1-0.1-0.1-0.2-0.1c-0.1,0-0.2,0-0.2,0
				L3,2.7c0.3-1.5,1.6-2.5,3.1-2.5h13.1C19.1,0.2,19.1,0.3,19.1,0.4z"/>
		</g>
		<g>
			<path class="st0" d="M19.8,19.9c0,0.1,0,0.2-0.1,0.2c-0.1,0.1-0.2,0.1-0.3,0.1H3.3c-1,0-1.9-0.4-2.5-1.2
				c-0.6-0.8-0.9-1.8-0.7-2.7l1.3-6.2c0-0.1,0.1-0.2,0.2-0.3c0.1,0,0.1,0,0.2,0c0.1,0,0.1,0.1,0.2,0.1c0.1,0.1,0.1,0.2,0.1,0.3
				l-1.3,6.2c-0.2,0.8,0,1.5,0.5,2.1c0.5,0.6,1.2,0.9,2,0.9h16.2c0.1,0,0.2,0.1,0.3,0.1C19.8,19.7,19.8,19.8,19.8,19.9z"/>
		</g>
		<g>
			<path class="st1" d="M37.4,10.5l-1.5,7.2c-0.3,1.5-1.6,2.5-3.1,2.5H19.8c0-0.1,0.1-0.1,0.1-0.2c0-0.1,0-0.2-0.1-0.2h13.1
				c1.3,0,2.4-0.9,2.7-2.2l1.5-7.1c0,0.1,0.1,0.1,0.2,0.1c0,0,0,0,0.1,0C37.3,10.5,37.3,10.5,37.4,10.5z"/>
		</g>
		<g>
			<path class="st0" d="M38.9,4l-1.3,6.2c0,0.1-0.1,0.2-0.2,0.3c0,0-0.1,0-0.2,0c0,0,0,0-0.1,0c-0.1,0-0.1-0.1-0.2-0.1
				c-0.1-0.1-0.1-0.2-0.1-0.3l1.3-6.2c0.2-0.8,0-1.5-0.5-2.1c-0.5-0.6-1.2-0.9-2-0.9H19.5c-0.1,0-0.2-0.1-0.3-0.1
				c0-0.1-0.1-0.1-0.1-0.2c0-0.1,0-0.2,0.1-0.2C19.2,0.1,19.3,0,19.5,0h16.2c1,0,1.9,0.4,2.5,1.2C38.8,2,39.1,3,38.9,4z"/>
		</g>
	</g>
</g>
</svg>
