<?xml version="1.0" encoding="UTF-8"?>
<svg id="Layer_1" xmlns="http://www.w3.org/2000/svg" version="1.1" viewBox="0 0 200 133.33">
  <!-- Generator: Adobe Illustrator 29.7.1, SVG Export Plug-In . SVG Version: 2.1.1 Build 8)  -->
  <defs>
    <style>
      .st0 {
        fill: #231f20;
      }

      .st1 {
        fill: #d12053;
      }

      .st2 {
        fill: #9e1638;
      }

      .st3 {
        fill: #e2136e;
      }
    </style>
  </defs>
  <path class="st1" d="M181.03,71.32l-42.93-6.73,5.69,25.58,37.23-18.85Z"/>
  <path class="st3" d="M181.03,71.32l-32.35-44.94-10.57,38.22,42.92,6.72Z"/>
  <path class="st1" d="M137.11,64.08l-33.89-43.31,44.38,5.3-10.49,38.01Z"/>
  <path class="st2" d="M121.68,45.98l-18.82-17.74h4.95l13.87,17.74Z"/>
  <path class="st1" d="M190.19,49.47l-7.97,21.6-12.91-17.86,20.88-3.75Z"/>
  <path class="st3" d="M148.81,88.87l31.25-12.55,1.31-3.99-32.56,16.55Z"/>
  <path class="st2" d="M123.81,112.57l13.39-46.96,6.79,30.56-20.18,16.41Z"/>
  <path class="st3" d="M191.44,49.64l-3.29,8.92,11.85-.19-8.56-8.73ZM0,53.22c.57.05,1.16.15,1.77.15s1.12-.11,1.77-.15v19c1.87-3.18,4.23-5.28,7.69-5.28,6.27,0,8.95,6.2,8.95,11.9,0,6.82-3.64,13.36-10.03,13.36-2.61.06-5.03-1.34-6.29-3.62-1.07.94-2.02,2.06-3.03,3.08H.03L0,53.22ZM3.46,81.16c0,5.54,2.35,9.4,6.21,9.4,5.01,0,6.62-6.73,6.62-11.51,0-5.54-1.83-9.91-6.17-9.96-5.07-.04-6.66,5.96-6.66,12.08h0Z"/>
  <path class="st0" d="M36.53,65.51l-3.77,4.86c3.55,5.18,7.22,10.26,10.78,15.5l3.59,5.67v.28c-.88-.06-1.68-.17-2.43-.17s-1.68.11-2.48.17c-.98-1.81-1.95-3.49-3.06-5.13l-9.71-14.37c-.22-.23-.74-.4-.74-.17v19.67c-.71-.06-1.34-.17-1.95-.17s-1.33.11-1.95.17v-38.59c.62.05,1.3.17,1.95.17s1.24-.12,1.95-.17v17.42c0,.34.66.11,1.1-.34.84-.87,1.63-1.8,2.36-2.77l10.92-14.33c.57.05,1.15.17,1.77.17s1.1-.12,1.73-.17l-10.07,12.3ZM65.91,87.47c0,2.01-.13,3.03,2.49,2.36v1.13c-.43.21-.87.38-1.34.51-2.31.46-4.22.05-4.57-2.97l-.4.45c-1.56,2.05-4,3.25-6.57,3.24-3.14,0-5.89-2.48-5.89-6.27,0-5.85,4.05-6.62,8.2-7.39,3.51-.66,4.71-.97,4.71-3.44,0-3.8-1.86-6.01-5.19-6.01-2.33-.05-4.44,1.37-5.28,3.54h-.49v-2.85c2-1.74,4.53-2.73,7.18-2.82,4.65,0,7.19,2.82,7.19,8.62l-.04,11.91ZM62.36,78.99l-1.56.36c-3.02.66-7.54,1.17-7.54,5.86,0,3.24,1.62,4.86,4.34,4.86,1.41-.17,2.69-.88,3.59-1.98.32-.37,1.21-1.25,1.21-1.62l-.04-7.48ZM73.81,86.79c1.05,2.02,3.01,3.82,5.1,3.82,2.48-.13,4.41-2.2,4.35-4.68,0-6.93-10.48-2.43-10.48-11.4,0-4.92,3.24-7.58,7.23-7.58,1.76-.04,3.5.42,5.02,1.33-.44,1.19-.79,2.4-1.05,3.64h-.4c-.58-1.69-2.13-3.39-3.77-3.39-2.22,0-4.05,1.5-4.05,4.27,0,6.56,10.48,3.07,10.48,11.28,0,5.5-4.26,8.09-8.18,8.09-1.96,0-3.88-.56-5.54-1.62.4-1.23.71-2.49.93-3.76h.36ZM92.21,53.22c.59.05,1.17.15,1.78.15s1.12-.11,1.78-.15v18.69c1.55-3.13,3.99-4.97,7.15-4.97,5.15,0,7.15,3.53,7.15,10v14.87c-.67-.06-1.19-.15-1.78-.15s-1.2.11-1.78.15v-13.7c0-5.67-1.14-8.52-4.92-8.52-4,0-5.81,2.88-5.81,8.22v14c-.66-.06-1.19-.15-1.78-.15s-1.18.11-1.78.15v-38.59Z"/>
</svg>